<mxfile host="app.diagrams.net" modified="2025-05-17T14:38:16.166Z" agent="Mozilla/5.0 (Windows NT 10.0; Win64; x64) AppleWebKit/537.36 (KHTML, like Gecko) Chrome/136.0.0.0 Safari/537.36 Edg/136.0.0.0" version="24.6.4" etag="g7YUYL-i1xKbLPtKfhWX" type="github">
  <diagram name="第 1 页" id="fvZz3jhA8D3iX6jCbsK1">
    <mxGraphModel>
      <root>
        <mxCell id="0" />
        <mxCell id="1" parent="0" />
      </root>
    </mxGraphModel>
  </diagram>
</mxfile>
